# xmcd
#
# Track frame offsets:
#	150
#	43908
#	72496
#	104669
#	151836
#	182238
#	218149
#	251531
#	284223
#	311177
#
# Disc length: 4781 seconds
#
# Revision: 1
# Processed by: cddbd v1.5.2PL0 Copyright (c) Steve Scherf et al.
# Submitted via: EZCDAudioConverter 2.4.0.1
#
DISCID=a212ab0a
DTITLE=Various Artist - Various Artists - vol.95 - Long Time Blues   CD2
DYEAR=2016
DGENRE=Blues
TTITLE0=Nick Moss Band - Serves Me Right
TTITLE1=Wolf Mail - Upper Hand
TTITLE2=Leslie West - Summertime
TTITLE3=Jimmy D. Lane - Bleeding Heart
TTITLE4=West Water Outlaws - Goodbye Song
TTITLE5=Brother Sun Sister Moon - Slavery Blues
TTITLE6=Steve Gannon Band - Trouble, Trouble
TTITLE7=Oli Brown - Love's Gone Cold
TTITLE8=Anthony Geraci and The Boston Blues All-Stars - Cry a Million Tears
TTITLE9=Guy Forsyth Band - 19 Years
EXTD=
EXTT0=
EXTT1=
EXTT2=
EXTT3=
EXTT4=
EXTT5=
EXTT6=
EXTT7=
EXTT8=
EXTT9=
PLAYORDER=
